<?xml version="1.0" encoding="UTF-8"?>
<svg id="Ebene_1" data-name="Ebene 1" xmlns="http://www.w3.org/2000/svg" xmlns:xlink="http://www.w3.org/1999/xlink" viewBox="0 0 238.9 80.91">
  <defs>
    <style>
      .cls-1 {
        fill: none;
      }

      .cls-1, .cls-2 {
        stroke: #2a75bb;
        stroke-linecap: round;
        stroke-linejoin: round;
        stroke-width: 3px;
      }

      .cls-2, .cls-3, .cls-4 {
        fill: #2a75bb;
      }

      .cls-3 {
        filter: url(#drop-shadow-2);
      }

      .cls-3, .cls-4, .cls-5 {
        stroke-width: 0px;
      }

      .cls-5 {
        fill: #ffcb05;
      }
    </style>
    <filter id="drop-shadow-2" filterUnits="userSpaceOnUse">
      <feOffset dx="-2" dy="2"/>
      <feGaussianBlur result="blur" stdDeviation="0"/>
      <feFlood flood-color="#352800" flood-opacity=".38"/>
      <feComposite in2="blur" operator="in"/>
      <feComposite in="SourceGraphic"/>
    </filter>
  </defs>
  <g>
    <g>
      <path class="cls-2" d="m37.5,43.51c2.56-3.05,5.06-6.57,7.51-10.57,2.45-4,3.56-7.28,3.33-9.83-.06-.68-.26-1.32-.59-1.91-.82-1.44-1.82-2.66-3-3.67-1.18-1-2.49-1.77-3.92-2.31-1.44-.53-2.94-.87-4.51-1.03-1.04-.09-3.21.02-6.51.33-1.98.19-3.9.53-5.76,1.02-2.42.64-4.94,1.43-7.56,2.38-2.62.95-5.11,1.92-7.46,2.92-2.35,1-4.86,2.09-7.53,3.26.32.52.97,1.81,1.95,3.87.98,2.06,1.86,3.93,2.64,5.62.78,1.69,1.41,3,1.87,3.95.46.95.73,1.42.8,1.41.14-.17.5-.64,1.06-1.39.56-.75,1.02-1.37,1.37-1.84.35-.47.54-.71.59-.71l19.7,43.38,8.36-7.3-8.09-21.01c1.28-1.34,3.2-3.53,5.75-6.58Zm-9.36-2.12l-3.71-9.83c1.93-1.72,4.4-2.72,7.4-3,1-.09,2.02-.07,3.07.06.37.03.58.27.61.7.1,1.12-.78,3.02-2.65,5.7-1.87,2.68-3.44,4.81-4.72,6.38Z"/>
      <path class="cls-2" d="m220.93,21.4l-2.98,14.68-1.44-17.49-13.98-5.29-1.62,6.04,3.76,2.19-3.62,13.35c-.82-.89-1.64-1.64-2.48-2.23-.48-.34-.99-.65-1.53-.92-.53-.28-1.09-.54-1.67-.75-1.9-.7-3.93-.92-6.08-.67-2.15.26-4.41.98-6.78,2.18-.83.42-1.59.94-2.28,1.55l-3.22-19.16-7.76-.33-2.98,7.76-3.05-5.97-11.98.05-2.52,23-3.18,1.75-1.18.64s0,0,0,.01l-.1.05c.03.4.04.67.03.81-.06.73-.32,1.31-.76,1.76-.11.1-.21.2-.34.28-.72.48-1.53.68-2.43.61-.81-.07-1.5-.35-2.07-.86-.44-.39-.73-.88-.88-1.47-.04-.17-.07-.34-.09-.52-.1-1.05-.08-2.38.05-3.96.15-1.91.45-3.94.9-6.09l7.61.54v-.06s.13,0,.13,0l.72-8.81-7.44-.79,1.42-15.36-.04.02v-.02s-2.28.83-2.28.83l-8.04,2.86-.33,10.54-2.49-.37-5.72-.87v.02s-.28-.04-.28-.04l.03.42c-1.71-.48-3.5-.72-5.36-.68-1.62.04-3.19.26-4.72.68-1.53.42-2.99,1.03-4.4,1.83-1.41.8-2.71,1.79-3.9,2.97-.38.38-.75.87-1.12,1.47-.6.95-1.16,2.19-1.7,3.71-.86,2.43-1.26,4.88-1.21,7.36.05,2.4.58,4.46,1.58,6.19.03.06.06.13.09.18l-13.09-9.05,10.43-16.89-8.22-6.18-5.86,6.89-.38-7.52-11.4,5.47-.84,5.7,3.33-.93.98,9.57c-.99-.86-2.02-1.49-3.08-1.87-2.27-.8-4.58-.92-6.94-.38-1.15.26-2.25.7-3.3,1.3-1.05.6-2.04,1.39-2.95,2.36-.91.97-1.73,2.14-2.45,3.51-.33.62-.62,1.28-.89,1.99-.1-.08-.2-.17-.31-.24-.97-.7-2.07-1.14-3.29-1.32-1.36-.21-2.61-.27-3.75-.18-1.14.09-2.27.34-3.39.74-.03.01-.06.03-.1.04-1.56.56-3,1.41-4.32,2.6-1.59,1.44-3,3.34-4.21,5.68-.86,1.65-1.27,3.47-1.25,5.43-.03,1.64.28,3.36.92,5.17.58,1.61,1.37,3.07,2.36,4.38.02.03.05.07.07.1.11.14.22.26.33.39.13.16.24.32.38.47.03.04.07.07.1.1.21.24.44.46.66.67.14.13.27.27.41.39.15.13.3.24.45.36.92.74,1.89,1.32,2.92,1.7,1,.34,2.12.51,3.36.49,1.24-.01,2.47-.24,3.69-.68,1.04-.37,2.04-.89,2.99-1.55.96-.66,1.87-1.48,2.74-2.47.87-.98,1.64-2.15,2.33-3.5.05-.09.09-.19.14-.29.25.17.51.33.79.48,3.06,1.57,6.25,1.97,9.56,1.21,2.07-.48,4.07-1.37,5.98-2.67.86-.58,1.63-1.31,2.33-2.16l.81,7.86,10.9-.76-1.14-11.23,24.49,11.75-1.01-9.16-5.07-3.5c1.44.32,3.01.47,4.73.43,2.49-.05,4.97-.45,7.45-1.18,2.48-.73,4.61-1.7,6.4-2.91.04-.03.08-.06.12-.09,0,0,.02-.01.03-.02,1.37-.92,2.35-1.89,2.94-2.92.03.62.07,1.24.14,1.85.18,1.61.53,2.78,1.04,3.52.76,1.1,1.68,2.1,2.76,3.02.48.43.99.84,1.54,1.23,1.71,1.2,3.74,1.9,6.09,2.1,1.56.13,3.24-.02,5.04-.46.53-.13,1.02-.28,1.48-.45l-.24,2.23,13.76-.14,1.54-13.58,3.59,7.76,2.94-5.76,2.2,16.3,14.11,2.53-1.11-6.61c.57.13,1.15.22,1.75.28,1.16.11,2.39.06,3.68-.14s2.64-.6,4.03-1.2c.83-.36,1.66-.79,2.49-1.3l-3.59,13.27,11.24,3.2,6.07-20.71,1.28,27.77,8.87,2.05,15.61-52.98-14.47-5.03Zm-147.51,24.2c-.14,1.04-.39,2-.76,2.89-.37.89-.88,1.66-1.53,2.3-.65.64-1.45,1.06-2.39,1.28-2.05.08-3.51-1.51-4.38-4.79-.96-4.16.41-6.85,4.12-8.08.72-.17,1.43-.2,2.14-.12.71.09,1.22.49,1.53,1.2l4.65-2.21.76,7.41-4.13.11Zm49.88-11.01s-.04.06-.06.1l-.07-.08c-.69,1.28-1.48,2.41-2.38,3.37-.66.71-1.37,1.3-2.13,1.78-.24.15-.49.28-.75.41-1.09.53-2.25.81-3.48.83l8.29-10.18.05.56h.26s0,.05,0,.05l6.5.34-.21,2.55c-.14,1.72-.24,3.45-.29,5.18-.02.56,0,1.1,0,1.64l-5.75-6.53Z"/>
      <polygon class="cls-2" points="121.95 12.18 116.02 3.5 102.85 11.18 105.82 15.62 121.95 12.18"/>
    </g>
    <g>
      <path class="cls-4" d="m37.5,43.51c2.56-3.05,5.06-6.57,7.51-10.57,2.45-4,3.56-7.28,3.33-9.83-.06-.68-.26-1.32-.59-1.91-.82-1.44-1.82-2.66-3-3.67-1.18-1-2.49-1.77-3.92-2.31-1.44-.53-2.94-.87-4.51-1.03-1.04-.09-3.21.02-6.51.33-1.98.19-3.9.53-5.76,1.02-2.42.64-4.94,1.43-7.56,2.38-2.62.95-5.11,1.92-7.46,2.92-2.35,1-4.86,2.09-7.53,3.26.32.52.97,1.81,1.95,3.87.98,2.06,1.86,3.93,2.64,5.62.78,1.69,1.41,3,1.87,3.95.46.95.73,1.42.8,1.41.14-.17.5-.64,1.06-1.39.56-.75,1.02-1.37,1.37-1.84.35-.47.54-.71.59-.71l19.7,43.38,8.36-7.3-8.09-21.01c1.28-1.34,3.2-3.53,5.75-6.58Zm-9.36-2.12l-3.71-9.83c1.93-1.72,4.4-2.72,7.4-3,1-.09,2.02-.07,3.07.06.37.03.58.27.61.7.1,1.12-.78,3.02-2.65,5.7-1.87,2.68-3.44,4.81-4.72,6.38Z"/>
      <path class="cls-4" d="m220.93,21.4l-2.98,14.68-1.44-17.49-13.98-5.29-1.62,6.04,3.76,2.19-3.62,13.35c-.82-.89-1.64-1.64-2.48-2.23-.48-.34-.99-.65-1.53-.92-.53-.28-1.09-.54-1.67-.75-1.9-.7-3.93-.92-6.08-.67-2.15.26-4.41.98-6.78,2.18-.83.42-1.59.94-2.28,1.55l-3.22-19.16-7.76-.33-2.98,7.76-3.05-5.97-11.98.05-2.52,23-3.18,1.75-1.18.64s0,0,0,.01l-.1.05c.03.4.04.67.03.81-.06.73-.32,1.31-.76,1.76-.11.1-.21.2-.34.28-.72.48-1.53.68-2.43.61-.81-.07-1.5-.35-2.07-.86-.44-.39-.73-.88-.88-1.47-.04-.17-.07-.34-.09-.52-.1-1.05-.08-2.38.05-3.96.15-1.91.45-3.94.9-6.09l7.61.54v-.06s.13,0,.13,0l.72-8.81-7.44-.79,1.42-15.36-.04.02v-.02s-2.28.83-2.28.83l-8.04,2.86-.33,10.54-2.49-.37-5.72-.87v.02s-.28-.04-.28-.04l.03.42c-1.71-.48-3.5-.72-5.36-.68-1.62.04-3.19.26-4.72.68-1.53.42-2.99,1.03-4.4,1.83-1.41.8-2.71,1.79-3.9,2.97-.38.38-.75.87-1.12,1.47-.6.95-1.16,2.19-1.7,3.71-.86,2.43-1.26,4.88-1.21,7.36.05,2.4.58,4.46,1.58,6.19.03.06.06.13.09.18l-13.09-9.05,10.43-16.89-8.22-6.18-5.86,6.89-.38-7.52-11.4,5.47-.84,5.7,3.33-.93.98,9.57c-.99-.86-2.02-1.49-3.08-1.87-2.27-.8-4.58-.92-6.94-.38-1.15.26-2.25.7-3.3,1.3-1.05.6-2.04,1.39-2.95,2.36-.91.97-1.73,2.14-2.45,3.51-.33.62-.62,1.28-.89,1.99-.1-.08-.2-.17-.31-.24-.97-.7-2.07-1.14-3.29-1.32-1.36-.21-2.61-.27-3.75-.18-1.14.09-2.27.34-3.39.74-.03.01-.06.03-.1.04-1.56.56-3,1.41-4.32,2.6-1.59,1.44-3,3.34-4.21,5.68-.86,1.65-1.27,3.47-1.25,5.43-.03,1.64.28,3.36.92,5.17.58,1.61,1.37,3.07,2.36,4.38.02.03.05.07.07.1.11.14.22.26.33.39.13.16.24.32.38.47.03.04.07.07.1.1.21.24.44.46.66.67.14.13.27.27.41.39.15.13.3.24.45.36.92.74,1.89,1.32,2.92,1.7,1,.34,2.12.51,3.36.49,1.24-.01,2.47-.24,3.69-.68,1.04-.37,2.04-.89,2.99-1.55.96-.66,1.87-1.48,2.74-2.47.87-.98,1.64-2.15,2.33-3.5.05-.09.09-.19.14-.29.25.17.51.33.79.48,3.06,1.57,6.25,1.97,9.56,1.21,2.07-.48,4.07-1.37,5.98-2.67.86-.58,1.63-1.31,2.33-2.16l.81,7.86,10.9-.76-1.14-11.23,24.49,11.75-1.01-9.16-5.07-3.5c1.44.32,3.01.47,4.73.43,2.49-.05,4.97-.45,7.45-1.18,2.48-.73,4.61-1.7,6.4-2.91.04-.03.08-.06.12-.09,0,0,.02-.01.03-.02,1.37-.92,2.35-1.89,2.94-2.92.03.62.07,1.24.14,1.85.18,1.61.53,2.78,1.04,3.52.76,1.1,1.68,2.1,2.76,3.02.48.43.99.84,1.54,1.23,1.71,1.2,3.74,1.9,6.09,2.1,1.56.13,3.24-.02,5.04-.46.53-.13,1.02-.28,1.48-.45l-.24,2.23,13.76-.14,1.54-13.58,3.59,7.76,2.94-5.76,2.2,16.3,14.11,2.53-1.11-6.61c.57.13,1.15.22,1.75.28,1.16.11,2.39.06,3.68-.14s2.64-.6,4.03-1.2c.83-.36,1.66-.79,2.49-1.3l-3.59,13.27,11.24,3.2,6.07-20.71,1.28,27.77,8.87,2.05,15.61-52.98-14.47-5.03Zm-147.51,24.2c-.14,1.04-.39,2-.76,2.89-.37.89-.88,1.66-1.53,2.3-.65.64-1.45,1.06-2.39,1.28-2.05.08-3.51-1.51-4.38-4.79-.96-4.16.41-6.85,4.12-8.08.72-.17,1.43-.2,2.14-.12.71.09,1.22.49,1.53,1.2l4.65-2.21.76,7.41-4.13.11Zm49.88-11.01s-.04.06-.06.1l-.07-.08c-.69,1.28-1.48,2.41-2.38,3.37-.66.71-1.37,1.3-2.13,1.78-.24.15-.49.28-.75.41-1.09.53-2.25.81-3.48.83l8.29-10.18.05.56h.26s0,.05,0,.05l6.5.34-.21,2.55c-.14,1.72-.24,3.45-.29,5.18-.02.56,0,1.1,0,1.64l-5.75-6.53Z"/>
      <polygon class="cls-4" points="121.95 12.18 116.02 3.5 102.85 11.18 105.82 15.62 121.95 12.18"/>
    </g>
    <g>
      <path class="cls-1" d="m37.5,43.51c2.56-3.05,5.06-6.57,7.51-10.57,2.45-4,3.56-7.28,3.33-9.83-.06-.68-.26-1.32-.59-1.91-.82-1.44-1.82-2.66-3-3.67-1.18-1-2.49-1.77-3.92-2.31-1.44-.53-2.94-.87-4.51-1.03-1.04-.09-3.21.02-6.51.33-1.98.19-3.9.53-5.76,1.02-2.42.64-4.94,1.43-7.56,2.38-2.62.95-5.11,1.92-7.46,2.92-2.35,1-4.86,2.09-7.53,3.26.32.52.97,1.81,1.95,3.87.98,2.06,1.86,3.93,2.64,5.62.78,1.69,1.41,3,1.87,3.95.46.95.73,1.42.8,1.41.14-.17.5-.64,1.06-1.39.56-.75,1.02-1.37,1.37-1.84.35-.47.54-.71.59-.71l19.7,43.38,8.36-7.3-8.09-21.01c1.28-1.34,3.2-3.53,5.75-6.58Zm-9.36-2.12l-3.71-9.83c1.93-1.72,4.4-2.72,7.4-3,1-.09,2.02-.07,3.07.06.37.03.58.27.61.7.1,1.12-.78,3.02-2.65,5.7-1.87,2.68-3.44,4.81-4.72,6.38Z"/>
      <path class="cls-1" d="m220.93,21.4l-2.98,14.68-1.44-17.49-13.98-5.29-1.62,6.04,3.76,2.19-3.62,13.35c-.82-.89-1.64-1.64-2.48-2.23-.48-.34-.99-.65-1.53-.92-.53-.28-1.09-.54-1.67-.75-1.9-.7-3.93-.92-6.08-.67-2.15.26-4.41.98-6.78,2.18-.83.42-1.59.94-2.28,1.55l-3.22-19.16-7.76-.33-2.98,7.76-3.05-5.97-11.98.05-2.52,23-3.18,1.75-1.18.64s0,0,0,.01l-.1.05c.03.4.04.67.03.81-.06.73-.32,1.31-.76,1.76-.11.1-.21.2-.34.28-.72.48-1.53.68-2.43.61-.81-.07-1.5-.35-2.07-.86-.44-.39-.73-.88-.88-1.47-.04-.17-.07-.34-.09-.52-.1-1.05-.08-2.38.05-3.96.15-1.91.45-3.94.9-6.09l7.61.54v-.06s.13,0,.13,0l.72-8.81-7.44-.79,1.42-15.36-.04.02v-.02s-2.28.83-2.28.83l-8.04,2.86-.33,10.54-2.49-.37-5.72-.87v.02s-.28-.04-.28-.04l.03.42c-1.71-.48-3.5-.72-5.36-.68-1.62.04-3.19.26-4.72.68-1.53.42-2.99,1.03-4.4,1.83-1.41.8-2.71,1.79-3.9,2.97-.38.38-.75.87-1.12,1.47-.6.95-1.16,2.19-1.7,3.71-.86,2.43-1.26,4.88-1.21,7.36.05,2.4.58,4.46,1.58,6.19.03.06.06.13.09.18l-13.09-9.05,10.43-16.89-8.22-6.18-5.86,6.89-.38-7.52-11.4,5.47-.84,5.7,3.33-.93.98,9.57c-.99-.86-2.02-1.49-3.08-1.87-2.27-.8-4.58-.92-6.94-.38-1.15.26-2.25.7-3.3,1.3-1.05.6-2.04,1.39-2.95,2.36-.91.97-1.73,2.14-2.45,3.51-.33.62-.62,1.28-.89,1.99-.1-.08-.2-.17-.31-.24-.97-.7-2.07-1.14-3.29-1.32-1.36-.21-2.61-.27-3.75-.18-1.14.09-2.27.34-3.39.74-.03.01-.06.03-.1.04-1.56.56-3,1.41-4.32,2.6-1.59,1.44-3,3.34-4.21,5.68-.86,1.65-1.27,3.47-1.25,5.43-.03,1.64.28,3.36.92,5.17.58,1.61,1.37,3.07,2.36,4.38.02.03.05.07.07.1.11.14.22.26.33.39.13.16.24.32.38.47.03.04.07.07.1.1.21.24.44.46.66.67.14.13.27.27.41.39.15.13.3.24.45.36.92.74,1.89,1.32,2.92,1.7,1,.34,2.12.51,3.36.49,1.24-.01,2.47-.24,3.69-.68,1.04-.37,2.04-.89,2.99-1.55.96-.66,1.87-1.48,2.74-2.47.87-.98,1.64-2.15,2.33-3.5.05-.09.09-.19.14-.29.25.17.51.33.79.48,3.06,1.57,6.25,1.97,9.56,1.21,2.07-.48,4.07-1.37,5.98-2.67.86-.58,1.63-1.31,2.33-2.16l.81,7.86,10.9-.76-1.14-11.23,24.49,11.75-1.01-9.16-5.07-3.5c1.44.32,3.01.47,4.73.43,2.49-.05,4.97-.45,7.45-1.18,2.48-.73,4.61-1.7,6.4-2.91.04-.03.08-.06.12-.09,0,0,.02-.01.03-.02,1.37-.92,2.35-1.89,2.94-2.92.03.62.07,1.24.14,1.85.18,1.61.53,2.78,1.04,3.52.76,1.1,1.68,2.1,2.76,3.02.48.43.99.84,1.54,1.23,1.71,1.2,3.74,1.9,6.09,2.1,1.56.13,3.24-.02,5.04-.46.53-.13,1.02-.28,1.48-.45l-.24,2.23,13.76-.14,1.54-13.58,3.59,7.76,2.94-5.76,2.2,16.3,14.11,2.53-1.11-6.61c.57.13,1.15.22,1.75.28,1.16.11,2.39.06,3.68-.14s2.64-.6,4.03-1.2c.83-.36,1.66-.79,2.49-1.3l-3.59,13.27,11.24,3.2,6.07-20.71,1.28,27.77,8.87,2.05,15.61-52.98-14.47-5.03Zm-147.51,24.2c-.14,1.04-.39,2-.76,2.89-.37.89-.88,1.66-1.53,2.3-.65.64-1.45,1.06-2.39,1.28-2.05.08-3.51-1.51-4.38-4.79-.96-4.16.41-6.85,4.12-8.08.72-.17,1.43-.2,2.14-.12.71.09,1.22.49,1.53,1.2l4.65-2.21.76,7.41-4.13.11Zm49.88-11.01s-.04.06-.06.1l-.07-.08c-.69,1.28-1.48,2.41-2.38,3.37-.66.71-1.37,1.3-2.13,1.78-.24.15-.49.28-.75.41-1.09.53-2.25.81-3.48.83l8.29-10.18.05.56h.26s0,.05,0,.05l6.5.34-.21,2.55c-.14,1.72-.24,3.45-.29,5.18-.02.56,0,1.1,0,1.64l-5.75-6.53Z"/>
      <polygon class="cls-1" points="121.95 12.18 116.02 3.5 102.85 11.18 105.82 15.62 121.95 12.18"/>
    </g>
    <g>
      <path class="cls-4" d="m37.5,43.51c2.56-3.05,5.06-6.57,7.51-10.57,2.45-4,3.56-7.28,3.33-9.83-.06-.68-.26-1.32-.59-1.91-.82-1.44-1.82-2.66-3-3.67-1.18-1-2.49-1.77-3.92-2.31-1.44-.53-2.94-.87-4.51-1.03-1.04-.09-3.21.02-6.51.33-1.98.19-3.9.53-5.76,1.02-2.42.64-4.94,1.43-7.56,2.38-2.62.95-5.11,1.92-7.46,2.92-2.35,1-4.86,2.09-7.53,3.26.32.52.97,1.81,1.95,3.87.98,2.06,1.86,3.93,2.64,5.62.78,1.69,1.41,3,1.87,3.95.46.95.73,1.42.8,1.41.14-.17.5-.64,1.06-1.39.56-.75,1.02-1.37,1.37-1.84.35-.47.54-.71.59-.71l19.7,43.38,8.36-7.3-8.09-21.01c1.28-1.34,3.2-3.53,5.75-6.58Zm-9.36-2.12l-3.71-9.83c1.93-1.72,4.4-2.72,7.4-3,1-.09,2.02-.07,3.07.06.37.03.58.27.61.7.1,1.12-.78,3.02-2.65,5.7-1.87,2.68-3.44,4.81-4.72,6.38Z"/>
      <path class="cls-4" d="m220.93,21.4l-2.98,14.68-1.44-17.49-13.98-5.29-1.62,6.04,3.76,2.19-3.62,13.35c-.82-.89-1.64-1.64-2.48-2.23-.48-.34-.99-.65-1.53-.92-.53-.28-1.09-.54-1.67-.75-1.9-.7-3.93-.92-6.08-.67-2.15.26-4.41.98-6.78,2.18-.83.42-1.59.94-2.28,1.55l-3.22-19.16-7.76-.33-2.98,7.76-3.05-5.97-11.98.05-2.52,23-3.18,1.75-1.18.64s0,0,0,.01l-.1.05c.03.4.04.67.03.81-.06.73-.32,1.31-.76,1.76-.11.1-.21.2-.34.28-.72.48-1.53.68-2.43.61-.81-.07-1.5-.35-2.07-.86-.44-.39-.73-.88-.88-1.47-.04-.17-.07-.34-.09-.52-.1-1.05-.08-2.38.05-3.96.15-1.91.45-3.94.9-6.09l7.61.54v-.06s.13,0,.13,0l.72-8.81-7.44-.79,1.42-15.36-.04.02v-.02s-2.28.83-2.28.83l-8.04,2.86-.33,10.54-2.49-.37-5.72-.87v.02s-.28-.04-.28-.04l.03.42c-1.71-.48-3.5-.72-5.36-.68-1.62.04-3.19.26-4.72.68-1.53.42-2.99,1.03-4.4,1.83-1.41.8-2.71,1.79-3.9,2.97-.38.38-.75.87-1.12,1.47-.6.95-1.16,2.19-1.7,3.71-.86,2.43-1.26,4.88-1.21,7.36.05,2.4.58,4.46,1.58,6.19.03.06.06.13.09.18l-13.09-9.05,10.43-16.89-8.22-6.18-5.86,6.89-.38-7.52-11.4,5.47-.84,5.7,3.33-.93.98,9.57c-.99-.86-2.02-1.49-3.08-1.87-2.27-.8-4.58-.92-6.94-.38-1.15.26-2.25.7-3.3,1.3-1.05.6-2.04,1.39-2.95,2.36-.91.97-1.73,2.14-2.45,3.51-.33.62-.62,1.28-.89,1.99-.1-.08-.2-.17-.31-.24-.97-.7-2.07-1.14-3.29-1.32-1.36-.21-2.61-.27-3.75-.18-1.14.09-2.27.34-3.39.74-.03.01-.06.03-.1.04-1.56.56-3,1.41-4.32,2.6-1.59,1.44-3,3.34-4.21,5.68-.86,1.65-1.27,3.47-1.25,5.43-.03,1.64.28,3.36.92,5.17.58,1.61,1.37,3.07,2.36,4.38.02.03.05.07.07.1.11.14.22.26.33.39.13.16.24.32.38.47.03.04.07.07.1.1.21.24.44.46.66.67.14.13.27.27.41.39.15.13.3.24.45.36.92.74,1.89,1.32,2.92,1.7,1,.34,2.12.51,3.36.49,1.24-.01,2.47-.24,3.69-.68,1.04-.37,2.04-.89,2.99-1.55.96-.66,1.87-1.48,2.74-2.47.87-.98,1.64-2.15,2.33-3.5.05-.09.09-.19.14-.29.25.17.51.33.79.48,3.06,1.57,6.25,1.97,9.56,1.21,2.07-.48,4.07-1.37,5.98-2.67.86-.58,1.63-1.31,2.33-2.16l.81,7.86,10.9-.76-1.14-11.23,24.49,11.75-1.01-9.16-5.07-3.5c1.44.32,3.01.47,4.73.43,2.49-.05,4.97-.45,7.45-1.18,2.48-.73,4.61-1.7,6.4-2.91.04-.03.08-.06.12-.09,0,0,.02-.01.03-.02,1.37-.92,2.35-1.89,2.94-2.92.03.62.07,1.24.14,1.85.18,1.61.53,2.78,1.04,3.52.76,1.1,1.68,2.1,2.76,3.02.48.43.99.84,1.54,1.23,1.71,1.2,3.74,1.9,6.09,2.1,1.56.13,3.24-.02,5.04-.46.53-.13,1.02-.28,1.48-.45l-.24,2.23,13.76-.14,1.54-13.58,3.59,7.76,2.94-5.76,2.2,16.3,14.11,2.53-1.11-6.61c.57.13,1.15.22,1.75.28,1.16.11,2.39.06,3.68-.14s2.64-.6,4.03-1.2c.83-.36,1.66-.79,2.49-1.3l-3.59,13.27,11.24,3.2,6.07-20.71,1.28,27.77,8.87,2.05,15.61-52.98-14.47-5.03Zm-147.51,24.2c-.14,1.04-.39,2-.76,2.89-.37.89-.88,1.66-1.53,2.3-.65.64-1.45,1.06-2.39,1.28-2.05.08-3.51-1.51-4.38-4.79-.96-4.16.41-6.85,4.12-8.08.72-.17,1.43-.2,2.14-.12.71.09,1.22.49,1.53,1.2l4.65-2.21.76,7.41-4.13.11Zm49.88-11.01s-.04.06-.06.1l-.07-.08c-.69,1.28-1.48,2.41-2.38,3.37-.66.71-1.37,1.3-2.13,1.78-.24.15-.49.28-.75.41-1.09.53-2.25.81-3.48.83l8.29-10.18.05.56h.26s0,.05,0,.05l6.5.34-.21,2.55c-.14,1.72-.24,3.45-.29,5.18-.02.56,0,1.1,0,1.64l-5.75-6.53Z"/>
      <polygon class="cls-4" points="121.95 12.18 116.02 3.5 102.85 11.18 105.82 15.62 121.95 12.18"/>
    </g>
  </g>
  <g>
    <g>
      <path class="cls-2" d="m39.5,41.51c2.56-3.05,5.06-6.57,7.51-10.57,2.45-4,3.56-7.28,3.33-9.83-.06-.68-.26-1.32-.59-1.91-.82-1.44-1.82-2.66-3-3.67-1.18-1-2.49-1.77-3.92-2.31-1.44-.53-2.94-.87-4.51-1.03-1.04-.09-3.21.02-6.51.33-1.98.19-3.9.53-5.76,1.02-2.42.64-4.94,1.43-7.56,2.38-2.62.95-5.11,1.92-7.46,2.92-2.35,1-4.86,2.09-7.53,3.26.32.52.97,1.81,1.95,3.87.98,2.06,1.86,3.93,2.64,5.62.78,1.69,1.41,3,1.87,3.95.46.95.73,1.42.8,1.41.14-.17.5-.64,1.06-1.39.56-.75,1.02-1.37,1.37-1.84.35-.47.54-.71.59-.71l19.7,43.38,8.36-7.3-8.09-21.01c1.28-1.34,3.2-3.53,5.75-6.58Zm-9.36-2.12l-3.71-9.83c1.93-1.72,4.4-2.72,7.4-3,1-.09,2.02-.07,3.07.06.37.03.58.27.61.7.1,1.12-.78,3.02-2.65,5.7-1.87,2.68-3.44,4.81-4.72,6.38Z"/>
      <path class="cls-2" d="m222.93,19.4l-2.98,14.68-1.44-17.49-13.98-5.29-1.62,6.04,3.76,2.19-3.62,13.35c-.82-.89-1.64-1.64-2.48-2.23-.48-.34-.99-.65-1.53-.92-.53-.28-1.09-.54-1.67-.75-1.9-.7-3.93-.92-6.08-.67-2.15.26-4.41.98-6.78,2.18-.83.42-1.59.94-2.28,1.55l-3.22-19.16-7.76-.33-2.98,7.76-3.05-5.97-11.98.05-2.52,23-3.18,1.75-1.18.64s0,0,0,.01l-.1.05c.03.4.04.67.03.81-.06.73-.32,1.31-.76,1.76-.11.1-.21.2-.34.28-.72.48-1.53.68-2.43.61-.81-.07-1.5-.35-2.07-.86-.44-.39-.73-.88-.88-1.47-.04-.17-.07-.34-.09-.52-.1-1.05-.08-2.38.05-3.96.15-1.91.45-3.94.9-6.09l7.61.54v-.06s.13,0,.13,0l.72-8.81-7.44-.79,1.42-15.36-.04.02v-.02s-2.28.83-2.28.83l-8.04,2.86-.33,10.54-2.49-.37-5.72-.87v.02s-.28-.04-.28-.04l.03.42c-1.71-.48-3.5-.72-5.36-.68-1.62.04-3.19.26-4.72.68-1.53.42-2.99,1.03-4.4,1.83-1.41.8-2.71,1.79-3.9,2.97-.38.38-.75.87-1.12,1.47-.6.95-1.16,2.19-1.7,3.71-.86,2.43-1.26,4.88-1.21,7.36.05,2.4.58,4.46,1.58,6.19.03.06.06.13.09.18l-13.09-9.05,10.43-16.89-8.22-6.18-5.86,6.89-.38-7.52-11.4,5.47-.84,5.7,3.33-.93.98,9.57c-.99-.86-2.02-1.49-3.08-1.87-2.27-.8-4.58-.92-6.94-.38-1.15.26-2.25.7-3.3,1.3-1.05.6-2.04,1.39-2.95,2.36-.91.97-1.73,2.14-2.45,3.51-.33.62-.62,1.28-.89,1.99-.1-.08-.2-.17-.31-.24-.97-.7-2.07-1.14-3.29-1.32-1.36-.21-2.61-.27-3.75-.18-1.14.09-2.27.34-3.39.74-.03.01-.06.03-.1.04-1.56.56-3,1.41-4.32,2.6-1.59,1.44-3,3.34-4.21,5.68-.86,1.65-1.27,3.47-1.25,5.43-.03,1.64.28,3.36.92,5.17.58,1.61,1.37,3.07,2.36,4.38.02.03.05.07.07.1.11.14.22.26.33.39.13.16.24.32.38.47.03.04.07.07.1.1.21.24.44.46.66.67.14.13.27.27.41.39.15.13.3.24.45.36.92.74,1.89,1.32,2.92,1.7,1,.34,2.12.51,3.36.49,1.24-.01,2.47-.24,3.69-.68,1.04-.37,2.04-.89,2.99-1.55.96-.66,1.87-1.48,2.74-2.47.87-.98,1.64-2.15,2.33-3.5.05-.09.09-.19.14-.29.25.17.51.33.79.48,3.06,1.57,6.25,1.97,9.56,1.21,2.07-.48,4.07-1.37,5.98-2.67.86-.58,1.63-1.31,2.33-2.16l.81,7.86,10.9-.76-1.14-11.23,24.49,11.75-1.01-9.16-5.07-3.5c1.44.32,3.01.47,4.73.43,2.49-.05,4.97-.45,7.45-1.18,2.48-.73,4.61-1.7,6.4-2.91.04-.03.08-.06.12-.09,0,0,.02-.01.03-.02,1.37-.92,2.35-1.89,2.94-2.92.03.62.07,1.24.14,1.85.18,1.61.53,2.78,1.04,3.52.76,1.1,1.68,2.1,2.76,3.02.48.43.99.84,1.54,1.23,1.71,1.2,3.74,1.9,6.09,2.1,1.56.13,3.24-.02,5.04-.46.53-.13,1.02-.28,1.48-.45l-.24,2.23,13.76-.14,1.54-13.58,3.59,7.76,2.94-5.76,2.2,16.3,14.11,2.53-1.11-6.61c.57.13,1.15.22,1.75.28,1.16.11,2.39.06,3.68-.14s2.64-.6,4.03-1.2c.83-.36,1.66-.79,2.49-1.3l-3.59,13.27,11.24,3.2,6.07-20.71,1.28,27.77,8.87,2.05,15.61-52.98-14.47-5.03Zm-147.51,24.2c-.14,1.04-.39,2-.76,2.89-.37.89-.88,1.66-1.53,2.3-.65.64-1.45,1.06-2.39,1.28-2.05.08-3.51-1.51-4.38-4.79-.96-4.16.41-6.85,4.12-8.08.72-.17,1.43-.2,2.14-.12.71.09,1.22.49,1.53,1.2l4.65-2.21.76,7.41-4.13.11Zm49.88-11.01s-.04.06-.06.1l-.07-.08c-.69,1.28-1.48,2.41-2.38,3.37-.66.71-1.37,1.3-2.13,1.78-.24.15-.49.28-.75.41-1.09.53-2.25.81-3.48.83l8.29-10.18.05.56h.26s0,.05,0,.05l6.5.34-.21,2.55c-.14,1.72-.24,3.45-.29,5.18-.02.56,0,1.1,0,1.64l-5.75-6.53Z"/>
      <polygon class="cls-2" points="123.95 10.18 118.02 1.5 104.85 9.18 107.82 13.62 123.95 10.18"/>
    </g>
    <g>
      <path class="cls-5" d="m39.5,41.51c2.56-3.05,5.06-6.57,7.51-10.57,2.45-4,3.56-7.28,3.33-9.83-.06-.68-.26-1.32-.59-1.91-.82-1.44-1.82-2.66-3-3.67-1.18-1-2.49-1.77-3.92-2.31-1.44-.53-2.94-.87-4.51-1.03-1.04-.09-3.21.02-6.51.33-1.98.19-3.9.53-5.76,1.02-2.42.64-4.94,1.43-7.56,2.38-2.62.95-5.11,1.92-7.46,2.92-2.35,1-4.86,2.09-7.53,3.26.32.52.97,1.81,1.95,3.87.98,2.06,1.86,3.93,2.64,5.62.78,1.69,1.41,3,1.87,3.95.46.95.73,1.42.8,1.41.14-.17.5-.64,1.06-1.39.56-.75,1.02-1.37,1.37-1.84.35-.47.54-.71.59-.71l19.7,43.38,8.36-7.3-8.09-21.01c1.28-1.34,3.2-3.53,5.75-6.58Zm-9.36-2.12l-3.71-9.83c1.93-1.72,4.4-2.72,7.4-3,1-.09,2.02-.07,3.07.06.37.03.58.27.61.7.1,1.12-.78,3.02-2.65,5.7-1.87,2.68-3.44,4.81-4.72,6.38Z"/>
      <path class="cls-5" d="m222.93,19.4l-2.98,14.68-1.44-17.49-13.98-5.29-1.62,6.04,3.76,2.19-3.62,13.35c-.82-.89-1.64-1.64-2.48-2.23-.48-.34-.99-.65-1.53-.92-.53-.28-1.09-.54-1.67-.75-1.9-.7-3.93-.92-6.08-.67-2.15.26-4.41.98-6.78,2.18-.83.42-1.59.94-2.28,1.55l-3.22-19.16-7.76-.33-2.98,7.76-3.05-5.97-11.98.05-2.52,23-3.18,1.75-1.18.64s0,0,0,.01l-.1.05c.03.4.04.67.03.81-.06.73-.32,1.31-.76,1.76-.11.1-.21.2-.34.28-.72.48-1.53.68-2.43.61-.81-.07-1.5-.35-2.07-.86-.44-.39-.73-.88-.88-1.47-.04-.17-.07-.34-.09-.52-.1-1.05-.08-2.38.05-3.96.15-1.91.45-3.94.9-6.09l7.61.54v-.06s.13,0,.13,0l.72-8.81-7.44-.79,1.42-15.36-.04.02v-.02s-2.28.83-2.28.83l-8.04,2.86-.33,10.54-2.49-.37-5.72-.87v.02s-.28-.04-.28-.04l.03.42c-1.71-.48-3.5-.72-5.36-.68-1.62.04-3.19.26-4.72.68-1.53.42-2.99,1.03-4.4,1.83-1.41.8-2.71,1.79-3.9,2.97-.38.38-.75.87-1.12,1.47-.6.95-1.16,2.19-1.7,3.71-.86,2.43-1.26,4.88-1.21,7.36.05,2.4.58,4.46,1.58,6.19.03.06.06.13.09.18l-13.09-9.05,10.43-16.89-8.22-6.18-5.86,6.89-.38-7.52-11.4,5.47-.84,5.7,3.33-.93.98,9.57c-.99-.86-2.02-1.49-3.08-1.87-2.27-.8-4.58-.92-6.94-.38-1.15.26-2.25.7-3.3,1.3-1.05.6-2.04,1.39-2.95,2.36-.91.97-1.73,2.14-2.45,3.51-.33.62-.62,1.28-.89,1.99-.1-.08-.2-.17-.31-.24-.97-.7-2.07-1.14-3.29-1.32-1.36-.21-2.61-.27-3.75-.18-1.14.09-2.27.34-3.39.74-.03.01-.06.03-.1.04-1.56.56-3,1.41-4.32,2.6-1.59,1.44-3,3.34-4.21,5.68-.86,1.65-1.27,3.47-1.25,5.43-.03,1.64.28,3.36.92,5.17.58,1.61,1.37,3.07,2.36,4.38.02.03.05.07.07.1.11.14.22.26.33.39.13.16.24.32.38.47.03.04.07.07.1.1.21.24.44.46.66.67.14.13.27.27.41.39.15.13.3.24.45.36.92.74,1.89,1.32,2.92,1.7,1,.34,2.12.51,3.36.49,1.24-.01,2.47-.24,3.69-.68,1.04-.37,2.04-.89,2.99-1.55.96-.66,1.87-1.48,2.74-2.47.87-.98,1.64-2.15,2.33-3.5.05-.09.09-.19.14-.29.25.17.51.33.79.48,3.06,1.57,6.25,1.97,9.56,1.21,2.07-.48,4.07-1.37,5.98-2.67.86-.58,1.63-1.31,2.33-2.16l.81,7.86,10.9-.76-1.14-11.23,24.49,11.75-1.01-9.16-5.07-3.5c1.44.32,3.01.47,4.73.43,2.49-.05,4.97-.45,7.45-1.18,2.48-.73,4.61-1.7,6.4-2.91.04-.03.08-.06.12-.09,0,0,.02-.01.03-.02,1.37-.92,2.35-1.89,2.94-2.92.03.62.07,1.24.14,1.85.18,1.61.53,2.78,1.04,3.52.76,1.1,1.68,2.1,2.76,3.02.48.43.99.84,1.54,1.23,1.71,1.2,3.74,1.9,6.09,2.1,1.56.13,3.24-.02,5.04-.46.53-.13,1.02-.28,1.48-.45l-.24,2.23,13.76-.14,1.54-13.58,3.59,7.76,2.94-5.76,2.2,16.3,14.11,2.53-1.11-6.61c.57.13,1.15.22,1.75.28,1.16.11,2.39.06,3.68-.14s2.64-.6,4.03-1.2c.83-.36,1.66-.79,2.49-1.3l-3.59,13.27,11.24,3.2,6.07-20.71,1.28,27.77,8.87,2.05,15.61-52.98-14.47-5.03Zm-147.51,24.2c-.14,1.04-.39,2-.76,2.89-.37.89-.88,1.66-1.53,2.3-.65.64-1.45,1.06-2.39,1.28-2.05.08-3.51-1.51-4.38-4.79-.96-4.16.41-6.85,4.12-8.08.72-.17,1.43-.2,2.14-.12.71.09,1.22.49,1.53,1.2l4.65-2.21.76,7.41-4.13.11Zm49.88-11.01s-.04.06-.06.1l-.07-.08c-.69,1.28-1.48,2.41-2.38,3.37-.66.71-1.37,1.3-2.13,1.78-.24.15-.49.28-.75.41-1.09.53-2.25.81-3.48.83l8.29-10.18.05.56h.26s0,.05,0,.05l6.5.34-.21,2.55c-.14,1.72-.24,3.45-.29,5.18-.02.56,0,1.1,0,1.64l-5.75-6.53Z"/>
      <polygon class="cls-5" points="123.95 10.18 118.02 1.5 104.85 9.18 107.82 13.62 123.95 10.18"/>
    </g>
    <g>
      <path class="cls-1" d="m39.5,41.51c2.56-3.05,5.06-6.57,7.51-10.57,2.45-4,3.56-7.28,3.33-9.83-.06-.68-.26-1.32-.59-1.91-.82-1.44-1.82-2.66-3-3.67-1.18-1-2.49-1.77-3.92-2.31-1.44-.53-2.94-.87-4.51-1.03-1.04-.09-3.21.02-6.51.33-1.98.19-3.9.53-5.76,1.02-2.42.64-4.94,1.43-7.56,2.38-2.62.95-5.11,1.92-7.46,2.92-2.35,1-4.86,2.09-7.53,3.26.32.52.97,1.81,1.95,3.87.98,2.06,1.86,3.93,2.64,5.62.78,1.69,1.41,3,1.87,3.95.46.95.73,1.42.8,1.41.14-.17.5-.64,1.06-1.39.56-.75,1.02-1.37,1.37-1.84.35-.47.54-.71.59-.71l19.7,43.38,8.36-7.3-8.09-21.01c1.28-1.34,3.2-3.53,5.75-6.58Zm-9.36-2.12l-3.71-9.83c1.93-1.72,4.4-2.72,7.4-3,1-.09,2.02-.07,3.07.06.37.03.58.27.61.7.1,1.12-.78,3.02-2.65,5.7-1.87,2.68-3.44,4.81-4.72,6.38Z"/>
      <path class="cls-1" d="m222.93,19.4l-2.98,14.68-1.44-17.49-13.98-5.29-1.62,6.04,3.76,2.19-3.62,13.35c-.82-.89-1.64-1.64-2.48-2.23-.48-.34-.99-.65-1.53-.92-.53-.28-1.09-.54-1.67-.75-1.9-.7-3.93-.92-6.08-.67-2.15.26-4.41.98-6.78,2.18-.83.42-1.59.94-2.28,1.55l-3.22-19.16-7.76-.33-2.98,7.76-3.05-5.97-11.98.05-2.52,23-3.18,1.75-1.18.64s0,0,0,.01l-.1.05c.03.4.04.67.03.81-.06.73-.32,1.31-.76,1.76-.11.1-.21.2-.34.28-.72.48-1.53.68-2.43.61-.81-.07-1.5-.35-2.07-.86-.44-.39-.73-.88-.88-1.47-.04-.17-.07-.34-.09-.52-.1-1.05-.08-2.38.05-3.96.15-1.91.45-3.94.9-6.09l7.61.54v-.06s.13,0,.13,0l.72-8.81-7.44-.79,1.42-15.36-.04.02v-.02s-2.28.83-2.28.83l-8.04,2.86-.33,10.54-2.49-.37-5.72-.87v.02s-.28-.04-.28-.04l.03.42c-1.71-.48-3.5-.72-5.36-.68-1.62.04-3.19.26-4.72.68-1.53.42-2.99,1.03-4.4,1.83-1.41.8-2.71,1.79-3.9,2.97-.38.38-.75.87-1.12,1.47-.6.95-1.16,2.19-1.7,3.71-.86,2.43-1.26,4.88-1.21,7.36.05,2.4.58,4.46,1.58,6.19.03.06.06.13.09.18l-13.09-9.05,10.43-16.89-8.22-6.18-5.86,6.89-.38-7.52-11.4,5.47-.84,5.7,3.33-.93.98,9.57c-.99-.86-2.02-1.49-3.08-1.87-2.27-.8-4.58-.92-6.94-.38-1.15.26-2.25.7-3.3,1.3-1.05.6-2.04,1.39-2.95,2.36-.91.97-1.73,2.14-2.45,3.51-.33.62-.62,1.28-.89,1.99-.1-.08-.2-.17-.31-.24-.97-.7-2.07-1.14-3.29-1.32-1.36-.21-2.61-.27-3.75-.18-1.14.09-2.27.34-3.39.74-.03.01-.06.03-.1.04-1.56.56-3,1.41-4.32,2.6-1.59,1.44-3,3.34-4.21,5.68-.86,1.65-1.27,3.47-1.25,5.43-.03,1.64.28,3.36.92,5.17.58,1.61,1.37,3.07,2.36,4.38.02.03.05.07.07.1.11.14.22.26.33.39.13.16.24.32.38.47.03.04.07.07.1.1.21.24.44.46.66.67.14.13.27.27.41.39.15.13.3.24.45.36.92.74,1.89,1.32,2.92,1.7,1,.34,2.12.51,3.36.49,1.24-.01,2.47-.24,3.69-.68,1.04-.37,2.04-.89,2.99-1.55.96-.66,1.87-1.48,2.74-2.47.87-.98,1.64-2.15,2.33-3.5.05-.09.09-.19.14-.29.25.17.51.33.79.48,3.06,1.57,6.25,1.97,9.56,1.21,2.07-.48,4.07-1.37,5.98-2.67.86-.58,1.63-1.31,2.33-2.16l.81,7.86,10.9-.76-1.14-11.23,24.49,11.75-1.01-9.16-5.07-3.5c1.44.32,3.01.47,4.73.43,2.49-.05,4.97-.45,7.45-1.18,2.48-.73,4.61-1.7,6.4-2.91.04-.03.08-.06.12-.09,0,0,.02-.01.03-.02,1.37-.92,2.35-1.89,2.94-2.92.03.62.07,1.24.14,1.85.18,1.61.53,2.78,1.04,3.52.76,1.1,1.68,2.1,2.76,3.02.48.43.99.84,1.54,1.23,1.71,1.2,3.74,1.9,6.09,2.1,1.56.13,3.24-.02,5.04-.46.53-.13,1.02-.28,1.48-.45l-.24,2.23,13.76-.14,1.54-13.58,3.59,7.76,2.94-5.76,2.2,16.3,14.11,2.53-1.11-6.61c.57.13,1.15.22,1.75.28,1.16.11,2.39.06,3.68-.14s2.64-.6,4.03-1.2c.83-.36,1.66-.79,2.49-1.3l-3.59,13.27,11.24,3.2,6.07-20.71,1.28,27.77,8.87,2.05,15.61-52.98-14.47-5.03Zm-147.51,24.2c-.14,1.04-.39,2-.76,2.89-.37.89-.88,1.66-1.53,2.3-.65.64-1.45,1.06-2.39,1.28-2.05.08-3.51-1.51-4.38-4.79-.96-4.16.41-6.85,4.12-8.08.72-.17,1.43-.2,2.14-.12.71.09,1.22.49,1.53,1.2l4.65-2.21.76,7.41-4.13.11Zm49.88-11.01s-.04.06-.06.1l-.07-.08c-.69,1.28-1.48,2.41-2.38,3.37-.66.71-1.37,1.3-2.13,1.78-.24.15-.49.28-.75.41-1.09.53-2.25.81-3.48.83l8.29-10.18.05.56h.26s0,.05,0,.05l6.5.34-.21,2.55c-.14,1.72-.24,3.45-.29,5.18-.02.56,0,1.1,0,1.64l-5.75-6.53Z"/>
      <polygon class="cls-1" points="123.95 10.18 118.02 1.5 104.85 9.18 107.82 13.62 123.95 10.18"/>
    </g>
  </g>
  <path class="cls-3" d="m33.47,77.9c-.11,0-.21-.01-.32-.03-.46-.1-.85-.41-1.05-.85L13.43,35.91l-.42.56c-.58.79-.96,1.27-1.11,1.45-.25.31-.62.5-1.02.54-1.15.1-1.54-.73-2.28-2.24-.47-.95-1.09-2.28-1.88-3.97-.78-1.68-1.66-3.55-2.63-5.61-1.18-2.49-1.67-3.4-1.87-3.72-.23-.37-.29-.82-.16-1.23.13-.42.43-.75.83-.93,2.67-1.17,5.19-2.26,7.55-3.26,2.37-1.01,4.91-2,7.54-2.95,2.65-.96,5.24-1.77,7.69-2.42,1.93-.51,3.95-.87,6-1.07,3.42-.32,5.63-.43,6.77-.33,1.71.16,3.36.54,4.91,1.11,1.6.59,3.07,1.46,4.38,2.57,1.31,1.12,2.43,2.49,3.33,4.07.44.78.69,1.63.77,2.52.26,2.91-.9,6.43-3.54,10.75-2.48,4.05-5.05,7.66-7.64,10.75-2.16,2.57-3.89,4.57-5.17,5.95l7.75,20.13c.23.59.06,1.25-.41,1.67l-8.36,7.3c-.28.24-.63.37-.99.37ZM13.77,31.52c.58,0,1.12.34,1.36.88l18.87,41.54,6.05-5.28-7.71-20.03c-.21-.54-.09-1.15.31-1.57,1.26-1.32,3.18-3.51,5.69-6.5,2.5-2.97,4.98-6.47,7.38-10.39,2.27-3.7,3.31-6.7,3.11-8.91-.04-.48-.17-.91-.4-1.32-.72-1.27-1.62-2.37-2.66-3.26-1.04-.89-2.21-1.57-3.47-2.04-1.31-.48-2.7-.8-4.13-.94-.63-.05-2.24-.04-6.22.33-1.89.18-3.74.51-5.51.98-2.37.63-4.87,1.42-7.44,2.34-2.58.93-5.06,1.91-7.38,2.89-1.91.81-3.92,1.68-6.03,2.6.33.65.73,1.49,1.22,2.5.98,2.06,1.86,3.94,2.64,5.63.6,1.29,1.11,2.37,1.52,3.22l1.01-1.36c.58-.78.92-1.25,1.66-1.31.04,0,.09,0,.13,0Zm16.36,9.37c-.08,0-.16,0-.24-.02-.53-.09-.97-.45-1.16-.95l-3.71-9.83c-.22-.58-.06-1.24.41-1.65,2.17-1.93,4.95-3.07,8.26-3.38,1.11-.1,2.25-.08,3.4.06,1.04.1,1.82.91,1.92,2.06.14,1.53-.76,3.6-2.92,6.69-1.88,2.7-3.49,4.87-4.79,6.47-.29.35-.72.55-1.16.55Zm-1.92-10.84l2.38,6.31c.9-1.2,1.92-2.61,3.03-4.2,1.56-2.23,2.11-3.48,2.29-4.13-.67-.04-1.32-.04-1.96.02-2.3.22-4.19.87-5.75,2Zm8.5-1.95s.03,0,.04,0c-.01,0-.03,0-.04,0Zm185.07,50.81c-.11,0-.22-.01-.34-.04l-8.87-2.04c-.66-.15-1.13-.72-1.16-1.39l-.87-18.81-3.54,12.1c-.23.79-1.06,1.25-1.85,1.02l-11.25-3.2c-.79-.23-1.25-1.04-1.04-1.83l2.71-10.02c-1.35.55-2.69.92-3.97,1.12-1.33.21-2.62.26-3.84.17l.77,4.57c.08.48-.08.97-.42,1.31-.35.34-.84.5-1.32.41l-14.11-2.53c-.64-.11-1.13-.63-1.22-1.28l-1.55-11.54-.75,1.48c-.26.51-.81.83-1.37.82-.57-.01-1.09-.35-1.33-.87l-1.34-2.9-.93,8.26c-.08.75-.72,1.32-1.47,1.33l-13.76.14c-.44.02-.84-.17-1.13-.49-.29-.32-.43-.74-.38-1.17v-.1c-1.71.35-3.35.46-4.87.34-2.65-.22-4.98-1.01-6.93-2.36-1.88-1.3-3.43-2.83-4.61-4.55-.48-.69-.83-1.6-1.07-2.78-.35.29-.72.57-1.12.84-1.9,1.29-4.19,2.33-6.81,3.1-2.38.7-4.8,1.11-7.2,1.22l.52.36c.36.25.59.64.64,1.07l1.01,9.16c.06.54-.18,1.07-.62,1.39-.44.32-1.02.36-1.52.13l-22.08-10.59.87,8.56c.04.4-.08.81-.34,1.12-.26.31-.64.5-1.04.53l-10.9.76c-.82.06-1.51-.54-1.6-1.34l-.49-4.83c-.1.08-.21.15-.31.22-2.05,1.4-4.24,2.37-6.48,2.89-3.47.8-6.85.43-10.08-1.09-.59,1.01-1.24,1.92-1.95,2.72-.94,1.07-1.96,1.98-3.01,2.71-1.06.73-2.18,1.31-3.34,1.72-1.38.49-2.78.75-4.18.76-1.41.03-2.7-.18-3.86-.57-1.92-.7-3.66-1.93-5.19-3.66-1.49-1.69-2.64-3.65-3.42-5.84-1.37-3.83-1.36-7.39.03-10.58,1.12-2.59,2.51-4.77,4.12-6.47,1.65-1.75,3.57-3.02,5.71-3.79,1.24-.44,2.51-.72,3.78-.82,1.25-.1,2.63-.03,4.1.2.95.14,1.85.42,2.68.83.08-.16.16-.32.24-.48.78-1.48,1.68-2.77,2.69-3.84,1.01-1.08,2.12-1.96,3.3-2.64,1.18-.68,2.43-1.17,3.71-1.46,2.63-.6,5.24-.46,7.77.42.26.09.52.2.77.31l-.48-4.67-1.62.45c-.49.13-1.01.01-1.39-.32-.38-.34-.57-.84-.49-1.34l.84-5.7c.07-.49.39-.92.84-1.13l11.4-5.47c.45-.22.98-.19,1.42.06.43.26.71.71.73,1.21l.19,3.74,3.41-4.01c.51-.6,1.41-.7,2.04-.23l8.22,6.18c.62.47.78,1.33.38,1.99l-9.68,15.67,8.17,5.65c-.13-.79-.2-1.61-.22-2.47-.06-2.67.37-5.35,1.28-7.95.94-2.69,1.97-4.56,3.14-5.73,1.28-1.27,2.7-2.35,4.22-3.21,1.51-.86,3.11-1.52,4.75-1.97,1.64-.45,3.35-.7,5.08-.73,1.57-.04,3.12.12,4.64.45.29-.16.62-.22.94-.17l6.82,1.02.28-8.86c.02-.62.42-1.16,1-1.37l10.36-3.69c.48-.17,1.02-.09,1.42.23.4.31.62.81.57,1.32l-1.28,13.88,5.97.64c.81.09,1.4.8,1.34,1.61l-.72,8.81c-.07.82-.79,1.43-1.6,1.37l-6.42-.45c-.3,1.61-.51,3.15-.63,4.61-.12,1.49-.14,2.73-.05,3.7.06.63.31.92.48,1.08.33.29.71.45,1.2.49.57.05,1.04-.07,1.48-.36.24-.16.48-.39.53-.98,0-.1,0-.3-.03-.58-.04-.59.26-1.15.78-1.42l3.66-1.98,2.44-22.25c.08-.76.72-1.33,1.48-1.34l11.98-.05h0c.56,0,1.08.32,1.34.82l1.52,2.97,1.78-4.62c.23-.6.79-1,1.46-.96l7.76.33c.71.03,1.3.55,1.42,1.25l2.84,16.88c.18-.1.37-.2.56-.3,2.52-1.27,4.98-2.05,7.31-2.33,2.39-.28,4.68-.03,6.81.75,1.24.46,2.39,1.06,3.43,1.79.27.19.55.4.82.63l2.66-9.8-2.77-1.61c-.58-.34-.87-1.03-.69-1.69l1.62-6.04c.11-.41.39-.75.76-.95.38-.19.82-.22,1.21-.07l13.98,5.29c.54.2.92.7.96,1.28l.57,6.98.88-4.35c.09-.42.35-.79.73-1,.38-.21.83-.26,1.24-.11l14.47,5.03c.76.26,1.17,1.07.95,1.84l-15.61,52.97c-.19.65-.79,1.08-1.44,1.08Zm-7.42-4.75l6.38,1.47,14.81-50.25-11.5-4-2.64,13c-.15.73-.79,1.24-1.56,1.2-.75-.04-1.34-.63-1.41-1.37l-1.36-16.54-11.54-4.37-.9,3.33,2.77,1.62c.59.34.87,1.03.69,1.69l-3.62,13.35c-.14.53-.56.94-1.09,1.07-.53.13-1.09-.04-1.46-.44-.76-.83-1.51-1.51-2.24-2.02-.82-.58-1.74-1.06-2.73-1.42-1.68-.62-3.5-.81-5.42-.59-1.98.23-4.1.92-6.32,2.03-.7.35-1.36.8-2,1.36-.41.36-.98.46-1.49.28-.51-.18-.88-.63-.97-1.16l-3.03-18.04-5.47-.23-2.59,6.75c-.21.55-.73.93-1.32.96-.59.02-1.15-.29-1.42-.82l-2.63-5.14-9.72.04-2.38,21.71c-.05.49-.34.92-.78,1.16l-3.54,1.92s0,.03,0,.04c-.11,1.39-.76,2.51-1.86,3.25-1.01.67-2.15.95-3.38.85-1.14-.09-2.13-.51-2.94-1.23-.86-.76-1.36-1.79-1.48-3.04-.11-1.14-.09-2.56.05-4.22.16-1.96.48-4.07.94-6.26.16-.73.84-1.25,1.57-1.19l6.26.44.48-5.87-5.99-.64c-.82-.09-1.41-.81-1.33-1.63l1.2-13.02-7.19,2.56-.3,9.52c-.01.43-.21.83-.54,1.1-.33.27-.77.39-1.18.33l-7.37-1.1c-.37.25-.83.33-1.26.21-1.6-.45-3.25-.66-4.92-.62-1.49.03-2.95.24-4.35.63-1.4.38-2.76.95-4.06,1.68-1.29.73-2.5,1.65-3.59,2.73-.57.56-1.45,1.82-2.42,4.58-.79,2.27-1.17,4.59-1.12,6.9.05,2.19.52,4.07,1.41,5.61.35.61.24,1.38-.28,1.85-.52.48-1.29.53-1.87.13l-13.09-9.05c-.66-.45-.84-1.34-.42-2.02l9.71-15.72-5.99-4.51-4.94,5.81c-.4.47-1.04.65-1.62.45-.58-.2-.98-.73-1.02-1.34l-.27-5.27-8.64,4.15-.39,2.63,1.11-.31c.42-.12.88-.04,1.25.21.37.25.6.65.65,1.09l.98,9.57c.06.61-.25,1.2-.8,1.48-.55.28-1.21.2-1.68-.2-.85-.74-1.73-1.28-2.6-1.59-2.01-.7-4-.81-6.1-.33-1,.23-1.97.61-2.89,1.14-.92.53-1.8,1.23-2.6,2.09-.82.87-1.57,1.94-2.22,3.18-.28.53-.56,1.15-.81,1.82-.17.44-.54.78-1,.91-.46.13-.95.03-1.32-.26l-.26-.21c-.79-.56-1.65-.91-2.64-1.06-1.25-.19-2.39-.25-3.41-.17-1,.08-2.01.3-3,.66-1.68.6-3.21,1.62-4.54,3.02-1.37,1.45-2.56,3.34-3.55,5.61-1.09,2.51-1.08,5.25.04,8.38.65,1.83,1.61,3.46,2.85,4.86,1.19,1.35,2.52,2.3,3.93,2.82.8.27,1.77.42,2.83.4,1.07-.01,2.14-.21,3.21-.59.91-.33,1.8-.79,2.65-1.37.85-.59,1.68-1.34,2.46-2.22.78-.89,1.49-1.96,2.12-3.19l.13-.27c.19-.39.54-.67.95-.78.41-.11.86-.04,1.22.19.22.14.44.28.67.41,2.74,1.41,5.53,1.76,8.52,1.07,1.88-.43,3.72-1.26,5.47-2.45.71-.48,1.39-1.11,2.02-1.88.38-.47,1.01-.66,1.59-.48.58.17,1,.68,1.06,1.28l.66,6.42,7.91-.55-.98-9.68c-.05-.54.19-1.07.63-1.38.44-.31,1.02-.36,1.51-.12l22.05,10.58-.64-5.8-4.5-3.11c-.59-.41-.81-1.18-.52-1.84.29-.66,1-1.02,1.7-.86,1.33.3,2.79.43,4.36.4,2.34-.05,4.72-.43,7.06-1.12,2.32-.68,4.33-1.6,5.98-2.71,1.15-.78,1.97-1.59,2.44-2.42l-4.23-4.88c-.46.67-.96,1.29-1.49,1.86-1.02,1.09-2.16,1.96-3.4,2.57-1.27.63-2.65.96-4.08.99-.59.02-1.12-.31-1.38-.84-.26-.52-.19-1.15.17-1.6l8.34-10.41c.38-.48,1.02-.68,1.61-.5.39.12.7.38.88.72l5.58.29c.41.02.79.2,1.05.51.27.31.4.71.37,1.11l-.21,2.58c-.14,1.68-.23,3.4-.28,5.1-.02.6,0,1.19,0,1.78,0,.18-.03.36-.08.53.07.16.11.33.12.51.03.67.08,1.33.15,1.98.2,1.77.57,2.53.78,2.83.98,1.42,2.27,2.7,3.85,3.79,1.51,1.04,3.35,1.66,5.46,1.83,1.42.12,2.99-.03,4.66-.42.43-.1.84-.23,1.23-.36.48-.16,1.02-.07,1.42.25.4.32.61.82.55,1.33l-.07.59,10.74-.11,1.39-12.27c.08-.67.59-1.2,1.25-1.31.66-.1,1.32.24,1.6.85l2.29,4.96,1.53-3.01c.3-.59.94-.91,1.59-.8.65.11,1.15.63,1.23,1.28l2.05,15.22,10.94,1.96-.76-4.51c-.08-.49.09-1,.45-1.34.36-.34.87-.48,1.36-.37.52.12,1.04.2,1.56.25,1.03.1,2.15.05,3.31-.13,1.17-.18,2.4-.55,3.67-1.09.73-.31,1.49-.71,2.3-1.2.52-.32,1.19-.28,1.68.08.49.37.71,1,.55,1.59l-3.21,11.84,8.39,2.39,5.65-19.29c.21-.7.89-1.15,1.62-1.07.73.09,1.29.69,1.32,1.42l1.23,26.64Zm-90.99-41.43l-2.22,2.77c.18-.17.36-.35.53-.53.61-.66,1.17-1.4,1.68-2.24Zm1.79-1.61c.43,0,.85.19,1.13.52l3.32,3.83c.05-1.1.12-2.19.21-3.27h0s.09-1.04.09-1.04l-5.07-.26-.28.35c.14-.06.28-.1.44-.12.06,0,.11,0,.17,0Zm-54.58,20.47c-1.93,0-4.4-1.06-5.68-5.9-1.14-4.93.68-8.42,5.1-9.89.04-.02.09-.03.14-.04.88-.2,1.77-.25,2.66-.14.7.09,1.32.36,1.81.81l3.53-1.68c.44-.21.96-.19,1.38.05s.71.67.76,1.15l.76,7.41c.04.42-.09.83-.37,1.14-.28.31-.67.5-1.09.51l-2.92.08c-.16.7-.37,1.36-.63,2-.45,1.08-1.08,2.02-1.87,2.8-.85.83-1.89,1.39-3.1,1.67-.09.02-.18.03-.28.04-.07,0-.14,0-.21,0Zm.3-12.93c-2.89.99-3.84,2.93-3.06,6.3.89,3.38,2.15,3.62,2.71,3.63.61-.16,1.12-.44,1.54-.86.51-.5.9-1.08,1.19-1.79.32-.77.54-1.62.66-2.52.1-.73.71-1.28,1.45-1.3l2.52-.07-.38-3.69-2.72,1.3c-.37.17-.79.19-1.17.05s-.69-.44-.85-.81c-.12-.28-.21-.29-.33-.31-.51-.06-1.03-.04-1.55.07Zm36.94-23.54c-.49,0-.96-.24-1.25-.66l-2.98-4.44c-.23-.34-.31-.77-.22-1.17s.35-.75.71-.96L117.27.2c.68-.4,1.55-.2,1.99.45l5.93,8.68c.28.41.34.94.15,1.4s-.59.81-1.08.91l-16.12,3.44c-.1.02-.21.03-.31.03Zm-.84-5.45l1.52,2.27,12.94-2.76-3.88-5.68-10.59,6.17Zm81.89,46.29c-.46,0-.92-.02-1.37-.06-1.28-.12-2.5-.39-3.65-.82-1.37-.51-2.61-1.21-3.68-2.1-1.08-.89-1.95-1.87-2.58-2.91-1.02-1.77-1.56-3.83-1.62-6.13-.06-2.25.31-4.49,1.11-6.67,1.39-3.82,3.67-6.55,6.77-8.11,2.51-1.27,4.96-2.06,7.27-2.33,2.38-.29,4.66-.03,6.77.75,1.24.46,2.38,1.06,3.41,1.79,1.01.72,2.02,1.66,3,2.77.97,1.1,1.64,2.36,1.99,3.74.34,1.33.44,2.73.29,4.16-.14,1.39-.47,2.78-.96,4.14-.4,1.1-.89,2.16-1.45,3.13-.55.97-1.16,1.85-1.79,2.61-.66.8-1.35,1.45-2.04,1.94-1.46,1.07-2.96,1.94-4.44,2.58-1.49.64-2.96,1.08-4.37,1.3-.91.14-1.8.21-2.67.21Zm4.11-26.25c-.5,0-1,.03-1.51.09-1.97.24-4.08.92-6.28,2.03-2.43,1.23-4.17,3.34-5.3,6.46-.67,1.82-.98,3.69-.93,5.56.05,1.81.46,3.38,1.21,4.69.44.73,1.08,1.45,1.9,2.12.82.67,1.77,1.21,2.82,1.6.9.33,1.87.55,2.89.64,1.02.1,2.13.05,3.29-.13,1.16-.18,2.39-.55,3.65-1.09,1.28-.55,2.58-1.31,3.88-2.26.5-.35.99-.83,1.49-1.42.52-.63,1.02-1.37,1.49-2.19.47-.83.89-1.73,1.23-2.67.41-1.13.68-2.27.8-3.41.11-1.08.04-2.13-.21-3.11-.24-.94-.68-1.75-1.34-2.5,0,0,0,0,0,0-.82-.94-1.66-1.72-2.48-2.31-.81-.58-1.72-1.06-2.71-1.42-1.22-.45-2.51-.68-3.87-.68Zm7.6,6.52c-.64,1-1.52,1.76-2.63,2.29s-2.05.66-2.82.37c-.39-.14-.69-.37-.92-.68-.3-.5-.3-1.18.02-2.04.24-.66.7-1.23,1.37-1.71.67-.48,1.55-.74,2.63-.76-.94-.35-1.92-.5-2.93-.47s-1.93.22-2.77.55-1.57.78-2.21,1.35-1.09,1.21-1.35,1.92c-.49,1.33-.26,2.61.68,3.85.87,1.15,1.83,1.91,2.86,2.29,1.01.37,2.04.36,3.07-.03,1.03-.39,1.95-1.04,2.76-1.95.8-.91,1.4-1.89,1.78-2.93.26-.71.42-1.4.47-2.07Zm-150.84,29.15c-.33,0-.66-.01-.98-.04-1.39-.11-2.67-.42-3.79-.92-1.85-.87-3.48-2.25-4.88-4.11-1.36-1.81-2.36-3.87-2.99-6.12-1.1-3.94-.84-7.49.75-10.56,1.29-2.49,2.82-4.54,4.54-6.1,1.77-1.6,3.76-2.7,5.94-3.27,1.27-.33,2.56-.48,3.81-.48,1.24.01,2.61.21,4.05.57,1.42.35,2.69,1,3.79,1.94,1.04.9,1.94,1.99,2.65,3.25.69,1.22,1.24,2.55,1.63,3.95.32,1.14.54,2.29.66,3.41.12,1.12.14,2.19.08,3.18-.07,1.03-.24,1.97-.52,2.77-.56,1.72-1.27,3.3-2.09,4.67-.83,1.39-1.77,2.59-2.79,3.58-1.01.99-2.08,1.81-3.18,2.44-1.11.63-2.26,1.11-3.44,1.42-1.07.28-2.16.42-3.23.42Zm2.24-28.6c-.95,0-1.92.13-2.89.38-1.7.45-3.28,1.32-4.68,2.59-1.45,1.32-2.76,3.09-3.89,5.26-1.25,2.4-1.42,5.14-.53,8.37.53,1.89,1.37,3.61,2.5,5.13,1.1,1.47,2.35,2.54,3.73,3.18.78.35,1.72.57,2.78.66,1.05.09,2.13-.01,3.21-.29.92-.24,1.83-.62,2.71-1.12.88-.51,1.75-1.17,2.58-1.98.83-.81,1.61-1.81,2.31-2.98.71-1.18,1.32-2.55,1.82-4.08.2-.58.32-1.25.37-2.02.05-.82.03-1.71-.07-2.66-.1-.95-.29-1.93-.56-2.92-.32-1.17-.78-2.27-1.35-3.27-.54-.96-1.22-1.79-2-2.46-.74-.64-1.58-1.06-2.55-1.3,0,0,0,0-.01,0-1.21-.31-2.34-.47-3.35-.48-.04,0-.08,0-.13,0Zm3.93,3.19c.06,1.19-.21,2.33-.81,3.42s-1.3,1.73-2.09,1.94c-.4.11-.78.1-1.15-.03-.54-.24-.93-.8-1.17-1.69-.19-.68-.15-1.42.12-2.2.27-.79.84-1.5,1.7-2.15-.97.26-1.86.7-2.67,1.31s-1.45,1.3-1.94,2.06-.83,1.56-1.02,2.4-.18,1.63.02,2.37c.38,1.38,1.31,2.31,2.8,2.78,1.39.44,2.61.52,3.67.24,1.05-.28,1.88-.88,2.5-1.8.62-.92.99-1.99,1.12-3.21.13-1.22.04-2.37-.25-3.45-.2-.74-.48-1.4-.83-1.98Zm57.75,9.16c-2.15,0-4.12-.27-5.87-.81-2.03-.62-3.64-1.64-4.79-3.01-1.89-2.24-2.89-5.14-2.97-8.62-.06-2.65.38-5.31,1.3-7.9.95-2.67,1.98-4.53,3.16-5.68,1.29-1.25,2.72-2.32,4.25-3.18,1.52-.85,3.13-1.5,4.78-1.95,1.65-.44,3.37-.69,5.11-.73,2.29-.05,4.52.27,6.61.94,2.12.69,4.01,1.72,5.63,3.08.63.53.71,1.46.2,2.09l-6.38,7.83c.14-.06.28-.1.43-.11.49-.06.97.13,1.29.5l6.24,7.09c.35.4.46.95.3,1.46-.56,1.72-1.9,3.3-3.98,4.68-1.92,1.28-4.23,2.31-6.86,3.07-2.61.76-5.27,1.17-7.89,1.23-.19,0-.38,0-.57,0Zm5.44-28.87c-.13,0-.27,0-.4,0-1.5.03-2.98.24-4.4.62-1.41.38-2.79.94-4.1,1.67-1.3.73-2.52,1.64-3.62,2.71-.57.56-1.46,1.8-2.43,4.54-.8,2.24-1.17,4.54-1.12,6.82.06,2.82.8,5.02,2.27,6.75.78.93,1.91,1.62,3.38,2.08,1.59.49,3.44.72,5.48.67,2.36-.05,4.76-.43,7.12-1.11,2.34-.68,4.37-1.58,6.03-2.69,1.15-.77,1.98-1.57,2.45-2.38l-4.27-4.85c-.47.67-.98,1.3-1.52,1.86-1.02,1.08-2.18,1.94-3.42,2.54-1.28.62-2.66.95-4.1.98-.6.04-1.12-.32-1.38-.84s-.18-1.15.18-1.61l12.49-15.34c-1.04-.69-2.19-1.24-3.44-1.64-1.65-.53-3.4-.8-5.22-.8Zm4.41,12.41l-2.26,2.78c.19-.17.37-.35.55-.54.62-.65,1.19-1.4,1.71-2.24Zm-11.3,2.53c-.42-.07-.44-.82-.58-1.23-.24-.74-.41-1.32-.52-1.76-.12-.48-.18-.99-.19-1.52-.03-1.48.42-2.85,1.33-4.1.35-.53.94-.99,1.79-1.38.78-.36,1.6-.55,2.44-.57.84-.03,3.53.52,3.61.86.08.34-7.82,9.7-7.88,9.69Zm31.53,18.71c-.41,0-.81-.02-1.21-.05-2.61-.22-4.91-1.01-6.83-2.37-1.85-1.3-3.38-2.84-4.54-4.56-.64-.94-1.06-2.32-1.27-4.19-.08-.68-.13-1.4-.17-2.27,0-.2.02-.4.09-.58-.07-.17-.11-.36-.12-.55v-.27c-.01-.52-.02-1.03,0-1.56.05-1.75.14-3.52.29-5.27l.08-1.05-5.11-.27c-.75-.04-1.36-.63-1.42-1.38l-.07-.9c-.03-.39.09-.77.33-1.07l3.96-4.87c-1.04-.69-2.19-1.24-3.44-1.64-.08-.03-.16-.05-.24-.07l-.25-.07c-.6-.17-1.03-.7-1.08-1.32l-.04-.54c-.04-.46.14-.9.47-1.22.33-.31.79-.45,1.25-.38l6.67,1.02.28-8.87c.02-.61.41-1.15.99-1.36l10.19-3.7c.48-.17,1.02-.09,1.43.22.41.31.62.81.58,1.32l-1.26,13.92,5.85.64c.81.09,1.4.8,1.33,1.61l-.71,8.82c-.07.82-.79,1.44-1.6,1.38l-6.29-.45c-.29,1.61-.5,3.16-.62,4.62-.12,1.5-.14,2.75-.05,3.71.06.64.3.93.48,1.09.32.29.69.44,1.16.48.55.04,1-.07,1.43-.36.23-.16.47-.4.52-.99,0-.11,0-.31-.03-.59-.04-.58.26-1.14.77-1.42l7.75-4.27c.37-.2.81-.24,1.21-.1.4.14.72.44.89.83.3.7.63,1.79,1.02,3.33h0c.4,1.6.52,3.33.38,5.15-.18,2.28-.95,4.33-2.29,6.09-1.37,1.81-3.54,3.08-6.44,3.8-1.5.36-2.95.54-4.31.54Zm-11-13.22c.04.64.08,1.19.14,1.71.2,1.78.57,2.55.77,2.84.96,1.43,2.23,2.7,3.78,3.79,1.48,1.04,3.28,1.66,5.35,1.83,1.39.12,2.93-.03,4.56-.42,2.21-.54,3.81-1.45,4.76-2.7,1-1.31,1.55-2.79,1.69-4.52.12-1.49.02-2.9-.3-4.18-.12-.5-.24-.92-.34-1.28l-5.37,2.96s0,.04,0,.06c-.11,1.38-.74,2.5-1.83,3.23-1,.67-2.12.96-3.36.86-1.13-.09-2.11-.51-2.92-1.24-.85-.77-1.34-1.79-1.45-3.04-.11-1.15-.09-2.53.04-4.22.16-1.97.47-4.08.92-6.27.15-.74.81-1.24,1.58-1.19l6.13.44.47-5.89-5.87-.64c-.81-.09-1.41-.81-1.33-1.63l1.18-13.04-7.02,2.54-.3,9.55c-.01.43-.21.83-.54,1.11-.33.27-.76.39-1.19.33l-1.23-.19c.43.54.44,1.32-.01,1.88l-3.78,4.64,4.47.23c.4.02.78.21,1.05.51.27.3.4.7.37,1.11l-.21,2.59c-.14,1.69-.23,3.41-.28,5.11-.01.39,0,.76,0,1.14.32.4.42.93.27,1.42-.06.18-.13.36-.21.55Z"/>
</svg>